<?xml version='1.0' encoding='utf-8'?>
<svg xmlns="http://www.w3.org/2000/svg" role="img" aria-labelledby="title description" viewBox="0 0 960 464"><title id="title">Daily downloads by OS</title><desc id="description">Downloads across all releases by UTC snapshot date. Unknown counts and multi-day intervals are gaps, not zero downloads.</desc><rect width="960" rx="12" fill="#ffffff" height="464" /><text x="28" y="34" fill="#24292f" font-family="sans-serif" font-size="22" font-weight="600">Daily downloads by OS</text><text x="28" y="58" fill="#24292f" font-family="sans-serif" font-size="12">2026-09-17 to 2026-09-22 · All releases · UTC snapshot dates</text><line x1="28" y1="80" x2="54" y2="80" stroke="#0969da" stroke-width="3" stroke-dasharray="none" /><text x="60" y="84" fill="#24292f" font-family="sans-serif" font-size="12">macOS</text><line x1="142" y1="80" x2="168" y2="80" stroke="#9a6700" stroke-width="3" stroke-dasharray="8 4" /><text x="174" y="84" fill="#24292f" font-family="sans-serif" font-size="12">Linux</text><line x1="256" y1="80" x2="282" y2="80" stroke="#8250df" stroke-width="3" stroke-dasharray="2 4" /><text x="288" y="84" fill="#24292f" font-family="sans-serif" font-size="12">Windows</text><text x="72" y="114" fill="#24292f" font-family="sans-serif" font-size="12">Downloads</text><line x1="72" y1="368.0" x2="912" y2="368.0" stroke="#d0d7de" /><text x="60" y="372.0" fill="#24292f" font-family="sans-serif" font-size="12" text-anchor="end">0</text><line x1="72" y1="308.0" x2="912" y2="308.0" stroke="#d0d7de" /><text x="60" y="312.0" fill="#24292f" font-family="sans-serif" font-size="12" text-anchor="end">4</text><line x1="72" y1="248.0" x2="912" y2="248.0" stroke="#d0d7de" /><text x="60" y="252.0" fill="#24292f" font-family="sans-serif" font-size="12" text-anchor="end">8</text><line x1="72" y1="188.0" x2="912" y2="188.0" stroke="#d0d7de" /><text x="60" y="192.0" fill="#24292f" font-family="sans-serif" font-size="12" text-anchor="end">12</text><line x1="72" y1="128.0" x2="912" y2="128.0" stroke="#d0d7de" /><text x="60" y="132.0" fill="#24292f" font-family="sans-serif" font-size="12" text-anchor="end">16</text><text x="72.0" y="392" fill="#24292f" font-family="sans-serif" font-size="12" text-anchor="middle">2026-09-17</text><text x="240.0" y="392" fill="#24292f" font-family="sans-serif" font-size="12" text-anchor="middle">2026-09-18</text><text x="408.0" y="392" fill="#24292f" font-family="sans-serif" font-size="12" text-anchor="middle">2026-09-19</text><text x="576.0" y="392" fill="#24292f" font-family="sans-serif" font-size="12" text-anchor="middle">2026-09-20</text><text x="744.0" y="392" fill="#24292f" font-family="sans-serif" font-size="12" text-anchor="middle">2026-09-21</text><text x="912.0" y="392" fill="#24292f" font-family="sans-serif" font-size="12" text-anchor="middle">2026-09-22</text><path d="M 240.00 203.00 L 408.00 308.00 L 576.00 158.00 L 744.00 308.00 L 912.00 353.00" fill="none" stroke="#0969da" stroke-width="2.5" stroke-dasharray="none" data-os="macos" /><circle cx="240.00" cy="203.00" r="3.5" fill="#ffffff" stroke="#0969da" stroke-width="2"><title>2026-09-18 · macOS: 11 downloads</title></circle><circle cx="408.00" cy="308.00" r="3.5" fill="#ffffff" stroke="#0969da" stroke-width="2"><title>2026-09-19 · macOS: 4 downloads</title></circle><circle cx="576.00" cy="158.00" r="3.5" fill="#ffffff" stroke="#0969da" stroke-width="2"><title>2026-09-20 · macOS: 14 downloads</title></circle><circle cx="744.00" cy="308.00" r="3.5" fill="#ffffff" stroke="#0969da" stroke-width="2"><title>2026-09-21 · macOS: 4 downloads</title></circle><circle cx="912.00" cy="353.00" r="3.5" fill="#ffffff" stroke="#0969da" stroke-width="2"><title>2026-09-22 · macOS: 1 downloads</title></circle><path d="M 240.00 338.00 L 408.00 368.00 L 576.00 368.00 L 744.00 368.00 L 912.00 368.00" fill="none" stroke="#9a6700" stroke-width="2.5" stroke-dasharray="8 4" data-os="linux" /><circle cx="240.00" cy="338.00" r="3.5" fill="#ffffff" stroke="#9a6700" stroke-width="2"><title>2026-09-18 · Linux: 2 downloads</title></circle><circle cx="408.00" cy="368.00" r="3.5" fill="#ffffff" stroke="#9a6700" stroke-width="2"><title>2026-09-19 · Linux: 0 downloads</title></circle><circle cx="576.00" cy="368.00" r="3.5" fill="#ffffff" stroke="#9a6700" stroke-width="2"><title>2026-09-20 · Linux: 0 downloads</title></circle><circle cx="744.00" cy="368.00" r="3.5" fill="#ffffff" stroke="#9a6700" stroke-width="2"><title>2026-09-21 · Linux: 0 downloads</title></circle><circle cx="912.00" cy="368.00" r="3.5" fill="#ffffff" stroke="#9a6700" stroke-width="2"><title>2026-09-22 · Linux: 0 downloads</title></circle><path d="M 240.00 308.00 L 408.00 368.00 L 576.00 368.00 L 744.00 368.00 L 912.00 368.00" fill="none" stroke="#8250df" stroke-width="2.5" stroke-dasharray="2 4" data-os="windows" /><circle cx="240.00" cy="308.00" r="3.5" fill="#ffffff" stroke="#8250df" stroke-width="2"><title>2026-09-18 · Windows: 4 downloads</title></circle><circle cx="408.00" cy="368.00" r="3.5" fill="#ffffff" stroke="#8250df" stroke-width="2"><title>2026-09-19 · Windows: 0 downloads</title></circle><circle cx="576.00" cy="368.00" r="3.5" fill="#ffffff" stroke="#8250df" stroke-width="2"><title>2026-09-20 · Windows: 0 downloads</title></circle><circle cx="744.00" cy="368.00" r="3.5" fill="#ffffff" stroke="#8250df" stroke-width="2"><title>2026-09-21 · Windows: 0 downloads</title></circle><circle cx="912.00" cy="368.00" r="3.5" fill="#ffffff" stroke="#8250df" stroke-width="2"><title>2026-09-22 · Windows: 0 downloads</title></circle><text x="28" y="430" fill="#24292f" font-family="sans-serif" font-size="12">Gaps = unknown counts or missed days. Points show downloads since the previous daily snapshot.</text></svg>